# xmcd
#
# Track frame offsets: 
#        150
#        10065
#        23678
#        32743
#        42968
#        53995
#        64980
#        74977
#        87773
#        99558
#        109903
#        119595
#        132758
#        142245
#        154633
#        167697
#        177670
#        189350
#        200048
#        210678
#        226347
#        241468
#        255193
#        265350
#
# Disc length: 3721 seconds
#
# Revision: 3
# Processed by: cddbd v1.4PL0 Copyright (c) Steve Scherf et al.
# Submitted via: ExactAudioCopy v0.95a4
#
DISCID=620e8718
DTITLE=Patsy Cline - The Patsy Cline Story
DYEAR=1988
DGENRE=Country
TTITLE0=Heartaches
TTITLE1=She's Got You
TTITLE2=Walkin' After Midnight
TTITLE3=Strange
TTITLE4=Leavin' on Your Mind
TTITLE5=South of the Border (Down Mexico Way)
TTITLE6=Foolin' Around
TTITLE7=I Fall to Pieces
TTITLE8=A Poor Man's Roses (Or a Rich Man's Gold)
TTITLE9=Tra le la le la Triangle
TTITLE10=True Love
TTITLE11=Imagine That
TTITLE12=Back in Baby's Arms
TTITLE13=Crazy
TTITLE14=You're Stronger Than Me
TTITLE15=Seven Lonely Days
TTITLE16=Sweet Dreams (of You)
TTITLE17=Your Cheatin' Heart
TTITLE18=San Antonio Rose
TTITLE19=Why Can't He Be You
TTITLE20=The Wayward Wind
TTITLE21=So Wrong
TTITLE22=I Love You So Much It Hurts
TTITLE23=You Belong to Me
EXTD=Label MCA Records\nMCAD-4038\nOriginally released June 17, 1963 a
EXTD=s a double album.\nA-A-D
EXTT0=
EXTT1=
EXTT2=1961 version
EXTT3=
EXTT4=
EXTT5=
EXTT6=
EXTT7=
EXTT8=1961 version
EXTT9=
EXTT10=
EXTT11=
EXTT12=
EXTT13=
EXTT14=1961 version
EXTT15=
EXTT16=
EXTT17=
EXTT18=
EXTT19=
EXTT20=
EXTT21=
EXTT22=
EXTT23=
PLAYORDER=
